<svg xmlns="http://www.w3.org/2000/svg" viewBox="0 0 179.54 180.42"><title>Asset 2</title><g id="Layer_2" data-name="Layer 2"><g id="Layer_1-2" data-name="Layer 1"><path d="M147,20.82c-9.66,7.9-18.42,15.5-27.73,22.35-2.13,1.56-6.54,1.56-9.25.54-19.12-7.17-36.94-5.36-52.59,8-15.26,13-20.38,29.84-16.67,49.63.49,2.64-1.2,6.72-3.27,8.63-7,6.49-14.69,12.3-21.52,19.86,8.86-2.3,17.84-4.23,26.52-7.05,5.25-1.71,8.57-1,12.74,3C84.07,153.12,127.5,141.1,139.2,103c.88-2.85,3.39-6.49,5.93-7.32,11-3.57,22.23-6.23,33.42-9.23,6.58,34.5-20.17,75-58,88.69C79.71,189.91,33.71,172.84,12,134.87-10.13,96.25-.93,48,33.9,19.74,66.62-6.82,115.81-6.68,147,20.82Z"/></g></g></svg>