<svg xmlns="http://www.w3.org/2000/svg" viewBox="0 0 257.05 257.05"><title>odysee</title><g id="Layer_2" data-name="Layer 2"><g id="Layer_1-2" data-name="Layer 1"><path d="M6.83,136.44c16.5-14.68,34.81-26,55.89-32.92,10.3-3.37,10.09-3.65,7.22-13.86C65.83,75,61.82,60.41,64.59,45c1.7-9.45,6.16-17.24,14.07-22.72C88.88,15.16,100,10,112.44,8.28,127.34,6.2,139,12.46,145.12,26.34c5.55,12.52,8.76,25.8,11.83,39.1,1.56,6.74,1.91,7,8.67,6.53s11.18-4.58,14.09-10.47c3.2-6.5,4-13.71,6-20.56,1.9-6.54,3.47-13.2,8.42-18.41,1.52-1.6,2.84-2.2,4.36-1.85A128.54,128.54,0,0,0,0,128.52,129.81,129.81,0,0,0,.92,144,21.5,21.5,0,0,1,6.83,136.44Z"/><path d="M257,128.52a128.08,128.08,0,0,0-35.23-88.4,6.83,6.83,0,0,1,.89,4.29c-1.24,16.2-6.11,30.87-17.19,43.21-8.23,9.17-16.41,18.37-25.43,26.8-4.94,4.61-4.75,9.14.68,13.33,8.47,6.53,16.49,13.5,22.86,22.17A33.56,33.56,0,0,1,210,165.43c2,14.43,8.35,27.26,15.72,39.57,1.44,2.41,1.86,4.35,1.24,6.21A128,128,0,0,0,257,128.52Z"/><path d="M188.16,232.9c-6.82-2.23-8.95-8-9.6-14.44-1-10.24-1.2-20.63-5.84-30.17-4.24-8.72-10-15.24-20.67-15.48-3-.07-3.65,1-3.41,3.71.26,3,.06,6,.06,9a87.48,87.48,0,0,1-3.82,29.05c-3,9.27-8.39,16.49-17.21,21-14.57,7.49-29.6,13-46.36,10.37-13.25-2.05-21.7-12.71-21.12-26.11.32-7.46,4-12.48,10.88-15.25,5.19-2.1,10.65-2.51,16.17-2.53,15.37,0,23.41-12.56,16.68-26.27-6-12.25-13-24-20.18-35.56-1.11-1.79-2-2.07-3.93-1.38C65.44,144,52,150.71,40.91,161.52c-4.9,4.79-10.07,9.21-16.31,12.21a21.39,21.39,0,0,1-10.1,2.41,11.42,11.42,0,0,1-6-1.66A128.57,128.57,0,0,0,203,233.26C198.29,235.1,193.29,234.57,188.16,232.9Z"/><path d="M119.73,22.83a39,39,0,0,0-18.74,6c-7.53,4.91-11.27,12-11.47,21.32a44,44,0,0,0,2.25,12.78c3.77,10.24,11,14.73,21.71,12.84a61.21,61.21,0,0,0,24.2-10,12.75,12.75,0,0,0,5.75-13.39,61.32,61.32,0,0,0-7.2-20.57C132.6,25.5,127.16,22.27,119.73,22.83Z"/></g></g></svg>