<svg xmlns="http://www.w3.org/2000/svg" viewBox="0 0 468.85 487.04"><title>Asset 1</title><g id="Layer_2" data-name="Layer 2"><g id="Layer_1-2" data-name="Layer 1"><path id="path7" d="M112,447.4a54.32,54.32,0,0,0,17.84,15.86c34.69,19.82,94.17,1,184.37-51.54h0C405.41,359.18,451,317.55,452,277.9a50.35,50.35,0,0,0-3-16.85C391.53,339.36,199.24,436.5,112,447.4m7.93-416.31C198.24,45,395.5,154,449,226.36c2-5,2-10.9,3-15.86,0-39.65-44.61-82.27-136.79-134.81h0C225,24.15,166.53,4.33,130.84,24.15a66.67,66.67,0,0,0-10.9,6.94ZM57.49,38c11.89-6.94,26.76-9.91,42.62-8.92a71.63,71.63,0,0,1,22.8-19.82c40.64-22.8,105.07-3,200.23,52.53h0c97.14,56.5,145.71,102.1,145.71,149.67,0,10.9-3,21.81-7.93,32.71,5.95,10.9,7.93,22.8,7.93,33.7,0,46.59-49.56,92.18-145.71,147.69h0C227,481.11,163.55,500.93,121.92,477.14c-10.9-5.95-20.82-15.86-28.75-28.75-13.88,0-25.77-4-36.68-9.91C15.86,415.68,0,351.26,0,238.26S16.85,60.83,57.49,38ZM90.2,45c-8.92,1-17.84,3-24.78,6.94C30.73,71.73,16.85,131.2,16.85,238.26c0,106.06,12.89,166.53,48.57,186.35,5.95,3,12.89,5.95,20.82,6.94C48.57,356.21,48.57,116.34,90.2,45Zm40.64,45.6c-67.4,37.67-67.4,267.63-1,305.3,69.39,39.65,256.73-97.14,256.73-156.61C387.57,161.93,196.26,53.89,130.84,90.56Z"/><path id="path9" d="M258.71,256.1c-8.92,5-18.83,10.9-27.75,15.86s-18.83,10.9-27.75,15.86c-28.75,16.85-27.75,17.84-27.75-15.86V208.52c0-32.71-2-32.71,27.75-15.86,8.92,5,18.83,10.9,27.75,15.86s18.83,10.9,27.75,15.86c28.75,16.85,28.75,15.86,0,31.72"/></g></g></svg>